<svg width="184" height="24" viewBox="0 0 184 24" fill="none" xmlns="http://www.w3.org/2000/svg">
<path d="M9.54 20L5.66 13.58C5.38 13.8733 5.08667 14.1733 4.78 14.48C4.48667 14.7867 4.18 15.0933 3.86 15.4V20H2.12V6.4H3.86V13.46C5.11333 12.1933 6.16 10.9933 7 9.86C7.84 8.72667 8.55333 7.57333 9.14 6.4H11.02C10.42 7.57333 9.79333 8.64 9.14 9.6C8.5 10.5467 7.76667 11.4933 6.94 12.44L11.66 20H9.54ZM22.302 19.06C21.9154 19.3133 21.362 19.5667 20.642 19.82C19.9354 20.0733 19.082 20.2 18.082 20.2C17.002 20.2 16.0887 19.9733 15.342 19.52C14.6087 19.0533 14.0487 18.4067 13.662 17.58C13.2887 16.74 13.102 15.7733 13.102 14.68V11.7C13.102 9.99333 13.5287 8.65333 14.382 7.68C15.2487 6.69333 16.502 6.2 18.142 6.2C18.742 6.2 19.3687 6.26667 20.022 6.4C20.6887 6.53333 21.3487 6.75333 22.002 7.06L21.442 8.56C20.242 8.06667 19.1487 7.82 18.162 7.82C17.0687 7.82 16.2487 8.15333 15.702 8.82C15.1687 9.47333 14.902 10.4333 14.902 11.7V14.68C14.902 15.88 15.1754 16.8333 15.722 17.54C16.2687 18.2467 17.0954 18.6 18.202 18.6C18.6287 18.6 19.062 18.5533 19.502 18.46C19.9554 18.3667 20.3554 18.24 20.702 18.08V14.42H18.162V12.88H22.302V19.06Z" fill="#CDCDCD"/>
<rect x="28" y="11.5" width="72" height="1" fill="#F1F1F1"/>
<path d="M106.3 20V6.4H110.2C111.373 6.4 112.273 6.71333 112.9 7.34C113.54 7.96667 113.86 8.80667 113.86 9.86V10.22C113.86 10.86 113.713 11.42 113.42 11.9C113.127 12.3667 112.693 12.7267 112.12 12.98C112.88 13.1933 113.46 13.5667 113.86 14.1C114.26 14.6333 114.46 15.2867 114.46 16.06V16.42C114.46 17.5 114.133 18.3667 113.48 19.02C112.827 19.6733 111.9 20 110.7 20H106.3ZM110.2 7.58H107.6V12.5H110.2C110.96 12.5 111.533 12.3 111.92 11.9C112.307 11.4867 112.5 10.9267 112.5 10.22V9.86C112.5 9.15333 112.307 8.6 111.92 8.2C111.533 7.78667 110.96 7.58 110.2 7.58ZM110.7 13.68H107.6V18.82H110.7C111.487 18.82 112.08 18.6067 112.48 18.18C112.893 17.7533 113.1 17.1667 113.1 16.42V16.06C113.1 15.3267 112.893 14.7467 112.48 14.32C112.08 13.8933 111.487 13.68 110.7 13.68ZM125.179 20L124.019 16.5H118.519L117.379 20H116.139L120.659 6.4H121.959L126.499 20H125.179ZM119.759 12.74L118.899 15.34H123.619L122.759 12.74L121.259 8.1L119.759 12.74ZM130.53 14.44V20H129.23V6.4H133.29C134.516 6.4 135.463 6.72667 136.13 7.38C136.81 8.02 137.15 8.88667 137.15 9.98V10.84C137.15 11.6533 136.956 12.3533 136.57 12.94C136.183 13.5267 135.623 13.9467 134.89 14.2C135.476 15.12 136.023 16.0667 136.53 17.04C137.05 18.0133 137.53 19 137.97 20H136.45C136.05 19.04 135.61 18.1 135.13 17.18C134.65 16.2467 134.136 15.3333 133.59 14.44H130.53ZM133.29 7.58H130.53V13.26H133.29C134.036 13.26 134.636 13.0467 135.09 12.62C135.556 12.18 135.79 11.5867 135.79 10.84V9.98C135.79 9.22 135.556 8.63333 135.09 8.22C134.636 7.79333 134.036 7.58 133.29 7.58ZM141.163 20V6.4H145.063C146.237 6.4 147.137 6.71333 147.763 7.34C148.403 7.96667 148.723 8.80667 148.723 9.86V10.22C148.723 10.86 148.577 11.42 148.283 11.9C147.99 12.3667 147.557 12.7267 146.983 12.98C147.743 13.1933 148.323 13.5667 148.723 14.1C149.123 14.6333 149.323 15.2867 149.323 16.06V16.42C149.323 17.5 148.997 18.3667 148.343 19.02C147.69 19.6733 146.763 20 145.563 20H141.163ZM145.063 7.58H142.463V12.5H145.063C145.823 12.5 146.397 12.3 146.783 11.9C147.17 11.4867 147.363 10.9267 147.363 10.22V9.86C147.363 9.15333 147.17 8.6 146.783 8.2C146.397 7.78667 145.823 7.58 145.063 7.58ZM145.563 13.68H142.463V18.82H145.563C146.35 18.82 146.943 18.6067 147.343 18.18C147.757 17.7533 147.963 17.1667 147.963 16.42V16.06C147.963 15.3267 147.757 14.7467 147.343 14.32C146.943 13.8933 146.35 13.68 145.563 13.68ZM160.263 18.82V20H152.863V6.4H160.063V7.58H154.163V12.52H159.463V13.7H154.163V18.82H160.263ZM164.729 14.44V20H163.429V6.4H167.489C168.716 6.4 169.662 6.72667 170.329 7.38C171.009 8.02 171.349 8.88667 171.349 9.98V10.84C171.349 11.6533 171.156 12.3533 170.769 12.94C170.382 13.5267 169.822 13.9467 169.089 14.2C169.676 15.12 170.222 16.0667 170.729 17.04C171.249 18.0133 171.729 19 172.169 20H170.649C170.249 19.04 169.809 18.1 169.329 17.18C168.849 16.2467 168.336 15.3333 167.789 14.44H164.729ZM167.489 7.58H164.729V13.26H167.489C168.236 13.26 168.836 13.0467 169.289 12.62C169.756 12.18 169.989 11.5867 169.989 10.84V9.98C169.989 9.22 169.756 8.63333 169.289 8.22C168.836 7.79333 168.236 7.58 167.489 7.58ZM178.003 19.06C178.896 19.06 179.589 18.8533 180.083 18.44C180.576 18.0133 180.823 17.4 180.823 16.6C180.823 15.9333 180.643 15.36 180.283 14.88C179.936 14.3867 179.369 14.0333 178.583 13.82L176.983 13.38C175.929 13.0867 175.169 12.6333 174.703 12.02C174.236 11.4067 174.003 10.6667 174.003 9.8C174.003 9.16 174.129 8.56667 174.382 8.02C174.636 7.47333 175.049 7.03333 175.623 6.7C176.209 6.36667 177.003 6.2 178.003 6.2C178.576 6.2 179.183 6.27333 179.823 6.42C180.476 6.55333 181.123 6.77333 181.763 7.08L181.323 8.2C180.683 7.89333 180.089 7.67333 179.543 7.54C178.996 7.40667 178.483 7.34 178.003 7.34C177.149 7.34 176.489 7.52667 176.023 7.9C175.556 8.27333 175.323 8.87333 175.323 9.7C175.323 10.2733 175.476 10.7733 175.783 11.2C176.089 11.6133 176.649 11.9333 177.463 12.16L179.063 12.6C180.089 12.88 180.856 13.3467 181.363 14C181.883 14.6533 182.143 15.4667 182.143 16.44C182.143 17.5467 181.816 18.4533 181.163 19.16C180.523 19.8533 179.469 20.2 178.003 20.2C177.376 20.2 176.709 20.1267 176.002 19.98C175.296 19.8333 174.589 19.6 173.883 19.28L174.303 18.18C174.983 18.5 175.616 18.7267 176.203 18.86C176.789 18.9933 177.389 19.06 178.003 19.06Z" fill="white"/>
</svg>
